<?xml version="1.0" standalone="no"?>
<!DOCTYPE svg PUBLIC "-//W3C//DTD SVG 20010904//EN"
 "http://www.w3.org/TR/2001/REC-SVG-20010904/DTD/svg10.dtd">
<svg version="1.0" xmlns="http://www.w3.org/2000/svg"
 width="700.000000pt" height="700.000000pt" viewBox="0 0 700.000000 700.000000"
 preserveAspectRatio="xMidYMid meet">
<metadata>
Created by potrace 1.11, written by Peter Selinger 2001-2013
</metadata>
<g transform="translate(0.000000,700.000000) scale(0.100000,-0.100000)"
fill="#000000" stroke="none">
<path d="M1025 5389 c-2 -3 -7 -28 -10 -55 -15 -140 -67 -247 -169 -349 -102
-101 -211 -153 -355 -169 -24 -3 -47 -10 -50 -15 -5 -7 -6 -2333 -2 -2448 1
-19 7 -23 36 -23 85 0 224 -49 302 -106 132 -97 223 -255 240 -414 l6 -60
2478 0 2479 0 1 23 c4 145 74 297 186 404 88 84 250 153 358 153 31 0 35 3 36
28 4 144 3 2436 -2 2444 -3 5 -26 12 -50 14 -142 15 -253 68 -354 169 -109
109 -171 244 -174 385 l-1 25 -2476 0 c-1362 0 -2477 -2 -2479 -6z"/>
</g>
</svg>
