<?xml version="1.0" encoding="utf-8"?><!-- Generator: Adobe Illustrator 15.0.0, SVG Export Plug-In . SVG Version: 6.00 Build 0)  --><!DOCTYPE svg PUBLIC "-//W3C//DTD SVG 1.1//EN" "http://www.w3.org/Graphics/SVG/1.1/DTD/svg11.dtd"><svg xmlns="http://www.w3.org/2000/svg" xmlns:xlink="http://www.w3.org/1999/xlink" version="1.1" x="0px" y="0px" width="528" height="528" viewBox="0 0 48 48" enable-background="new 0 0 48 48" xml:space="preserve">
<path fill="#FFC107" d="M41,11H7c0,2.209-1.791,4-4,4v17c2.209,0,4,1.791,4,4h34c0-2.209,1.791-4,4-4V15C42.791,15,41,13.209,41,11z  "/>
<g>
	<circle fill="#795548" cx="31.5" cy="18.5" r="1.5"/>
	<circle fill="#795548" cx="31.5" cy="13.5" r="1.5"/>
	<circle fill="#795548" cx="31.5" cy="23.5" r="1.5"/>
	<circle fill="#795548" cx="31.5" cy="28.5" r="1.5"/>
	<circle fill="#795548" cx="31.5" cy="33.5" r="1.5"/>
</g>
<g>
	<rect x="8" y="19" fill="#BC8413" width="18" height="3"/>
	<rect x="8" y="25" fill="#BC8413" width="12" height="3"/>
	<g>
		<path fill="#BC8413" d="M40,27.879h-2.018v-6.651L36,21.827v-1.583l3.814-1.365H40V27.879z"/>
	</g>
</g>
</svg>